HIERARCHY
ROOT hip
{
	OFFSET 0.000000 0.000000 0.000000 
	CHANNELS 6 Xposition Yposition Zposition Xrotation Zrotation Yrotation
	JOINT abdomen
	{
		OFFSET 0.000000 3.402643 0.000000 
		CHANNELS 3 Xrotation Zrotation Yrotation
		JOINT chest
		{
			OFFSET 0.000000 8.438565 -0.680529 
			CHANNELS 3 Xrotation Zrotation Yrotation
			JOINT neck
			{
				OFFSET 0.000000 10.207942 -0.272212 
				CHANNELS 3 Xrotation Zrotation Yrotation
				JOINT head
				{
					OFFSET 0.000000 3.130431 0.000000 
					CHANNELS 3 Xrotation Zrotation Yrotation
					End Site
					{
						OFFSET 0.000000 3.130435 0.000000 
					}
				}
			}
			JOINT lCollar
			{
				OFFSET 3.470700 6.669187 -0.816635 
				CHANNELS 3 Yrotation Zrotation Xrotation
				JOINT lShldr
				{
					OFFSET 3.198488 0.000000 0.000000 
					CHANNELS 3 Zrotation Yrotation Xrotation
					JOINT lForeArm
					{
						OFFSET 10.139888 0.000000 0.000000 
						CHANNELS 3 Yrotation Zrotation Xrotation
						JOINT lHand
						{
							OFFSET 8.370511 0.000000 0.000000 
							CHANNELS 3 Zrotation Yrotation Xrotation
							End Site
							{
								OFFSET 4.083176 0.000000 0.000000 
							}
						}
					}
				}
			}
			JOINT rCollar
			{
				OFFSET -3.470700 6.669187 -0.816635 
				CHANNELS 3 Yrotation Zrotation Xrotation
				JOINT rShldr
				{
					OFFSET -3.198488 0.000000 0.000000 
					CHANNELS 3 Zrotation Yrotation Xrotation
					JOINT rForeArm
					{
						OFFSET -10.139888 0.000000 0.000000 
						CHANNELS 3 Yrotation Zrotation Xrotation
						JOINT rHand
						{
							OFFSET -8.370511 0.000000 0.000000 
							CHANNELS 3 Zrotation Yrotation Xrotation
							End Site
							{
								OFFSET -4.083176 0.000000 0.000000 
							}
						}
					}
				}
			}
		}
	}
	JOINT lThigh
	{
		OFFSET 5.308129 -1.633274 1.361059 
		CHANNELS 3 Xrotation Zrotation Yrotation
		JOINT lShin
		{
			OFFSET -2.041588 -20.007561 0.000000 
			CHANNELS 3 Xrotation Zrotation Yrotation
			JOINT lFoot
			{
				OFFSET 0.000000 -19.190928 -1.224953 
				CHANNELS 3 Xrotation Yrotation Zrotation
				End Site
				{
					OFFSET 0.000000 -2.449906 4.627600 
				}
			}
		}
	}
	JOINT rThigh
	{
		OFFSET -5.308129 -1.633274 1.361059 
		CHANNELS 3 Xrotation Zrotation Yrotation
		JOINT rShin
		{
			OFFSET 2.041588 -20.007561 0.000000 
			CHANNELS 3 Xrotation Zrotation Yrotation
			JOINT rFoot
			{
				OFFSET 0.000000 -19.190928 -1.224953 
				CHANNELS 3 Xrotation Yrotation Zrotation
				End Site
				{
					OFFSET 0.000000 -2.449906 4.627600 
				}
			}
		}
	}
}
MOTION
Frames: 14
Frame Time: 0.033333
-53.686432 46.889484 -51.093151 3.770065 -12.425064 83.814621 0.000000 0.000000 0.000000 30.300146 4.091689 3.354570 -8.603516 0.000000 0.000000 -30.299026 -2.531792 15.166290 -2.957607 -0.090307 -0.002318 -85.122108 -31.153978 -7.893616 -72.644318 -50.950348 -9.839121 55.458481 -21.310774 8.965018 2.957607 0.090307 -0.002334 64.032921 24.634556 -15.246128 74.982399 24.247187 -3.967116 -37.588863 29.969620 17.334728 -48.631577 12.245514 -1.612133 34.045486 -3.790027 -2.557601 3.260929 -12.265690 -14.732986 1.675986 -26.452902 -50.118813 34.467358 6.349149 9.678143 -28.901939 -6.529089 10.678659 
-54.229836 46.809830 -51.016338 4.173584 -13.237531 81.326447 0.000000 0.000000 0.000000 31.123922 5.465019 1.133841 -8.603516 0.000000 0.000000 -30.142881 -1.508280 18.661060 -2.957607 -0.090307 -0.002318 -84.456284 -29.579039 -3.155467 -79.234840 -51.343498 -14.201871 59.094204 -25.996361 6.516492 2.957607 0.090307 -0.002334 62.061031 19.690556 -16.257681 80.342346 24.252100 -5.622469 -42.716537 34.571514 15.257043 -49.132389 13.650133 -1.098712 34.332066 -3.614840 -2.393043 3.584176 -11.038521 -15.489981 -0.464226 -26.675045 -49.059647 34.783913 5.948999 10.590478 -29.018114 -5.086313 9.978380 
-54.693581 46.835438 -50.987896 4.943388 -14.060925 77.847023 0.000000 0.000000 0.000000 30.879238 6.572857 -1.092869 -8.603516 0.000000 0.000000 -28.414761 -0.998112 21.758293 -2.957607 -0.090307 -0.002318 -83.307449 -29.345959 1.667904 -85.498802 -50.570568 -17.938280 61.389172 -29.669485 4.261499 2.957607 0.090307 -0.002334 60.376530 16.364439 -17.145540 85.349693 24.076754 -6.931893 -47.441750 38.932022 12.933012 -49.046440 15.486207 -0.082707 34.324596 -3.390302 -1.997587 3.785054 -9.823038 -16.441177 -2.905205 -27.084946 -47.591728 34.864212 5.597561 11.387792 -28.005463 -2.594244 9.306905 
-54.989525 46.932198 -50.979286 5.856716 -14.332212 73.447136 0.000000 0.000000 0.000000 29.939232 7.222620 -2.987095 -8.603516 0.000000 0.000000 -26.127848 -0.890888 24.025684 -2.957607 -0.090307 -0.002318 -82.872665 -30.418684 5.809473 -89.949608 -49.279842 -20.483488 62.504326 -33.324955 3.112350 2.957607 0.090307 -0.002334 59.297386 14.411349 -17.364887 89.318085 23.484791 -8.127727 -52.507355 42.970699 10.958007 -48.534954 17.646719 1.341748 34.031040 -3.198860 -1.533102 4.076735 -8.595437 -17.512878 -5.567911 -27.439583 -45.611961 34.733192 5.334408 12.170363 -26.630789 0.016249 8.566490 
-55.200047 47.063065 -50.993561 6.657764 -13.796661 68.678375 0.000000 0.000000 0.000000 28.766878 7.795803 -4.764220 -8.603516 0.000000 0.000000 -23.746593 -1.072543 25.610800 -2.957607 -0.090307 -0.002318 -82.984818 -32.305313 8.321263 -93.071030 -48.119827 -22.070202 62.539417 -36.649582 2.668953 2.957607 0.090307 -0.002334 58.933357 13.598298 -16.623415 92.322273 22.831400 -8.985366 -58.151138 46.640232 9.074845 -47.256271 19.829395 2.790289 33.367680 -2.931291 -1.100198 4.167259 -7.947921 -19.001562 -8.145542 -27.635447 -43.451889 34.402107 4.992781 12.614388 -24.976681 2.813869 7.951097 
-55.163109 47.302021 -51.110264 7.344693 -12.904672 63.505405 0.000000 0.000000 0.000000 27.707172 8.168190 -6.249212 -8.603516 0.000000 0.000000 -21.767696 -1.390296 26.468903 -2.957607 -0.090307 -0.002318 -82.588943 -34.418110 8.399337 -94.949730 -47.394112 -23.193104 61.533688 -39.846645 2.464059 2.957607 0.090307 -0.002334 59.333313 14.201873 -14.995139 94.233734 21.838408 -9.486591 -62.856426 49.481106 7.501503 -45.466293 21.932209 4.153296 32.445217 -2.852797 -0.947903 3.919372 -7.192520 -20.426165 -10.589348 -27.658146 -40.401985 33.761467 5.188104 12.440261 -23.153399 5.762058 7.517531 
-55.114731 47.364674 -51.141537 7.616322 -11.560069 58.816425 0.000000 0.000000 0.000000 26.755829 8.675729 -7.594093 -8.603516 0.000000 0.000000 -20.126143 -1.978393 26.279131 -2.957607 -0.090307 -0.002318 -81.731438 -36.104576 7.225750 -96.186707 -46.800938 -23.896847 60.548336 -41.501343 2.309540 2.957607 0.090307 -0.002334 59.862423 15.104881 -13.276904 95.794510 20.969406 -9.968044 -66.048668 51.410809 6.605658 -43.120876 23.630131 5.478572 31.685404 -2.882134 -0.709870 3.402803 -6.693388 -21.725288 -12.189630 -27.492641 -37.554649 32.746639 5.452064 12.122373 -21.150166 8.646531 7.134265 
-54.909874 47.597965 -51.229687 7.934136 -10.409434 54.201096 0.000000 0.000000 0.000000 25.568449 9.090875 -8.693343 -8.603516 0.000000 0.000000 -18.452276 -2.774881 25.410336 -2.957607 -0.090307 -0.002318 -80.384453 -36.483906 4.770485 -97.113586 -46.668434 -24.407373 59.214989 -41.957676 2.268323 2.957607 0.090307 -0.002334 60.312599 16.190845 -11.498822 96.895676 20.305014 -10.361030 -68.113541 52.589897 6.171367 -40.402184 25.101086 7.385732 31.061941 -2.960362 -0.396278 2.454343 -6.576982 -22.810226 -13.624194 -27.269196 -34.585396 31.821581 5.403526 12.065312 -19.507408 10.968068 7.003088 
-54.645313 47.708889 -51.295170 8.078149 -9.409364 50.310097 0.000000 0.000000 0.000000 24.382750 9.284739 -9.567140 -8.603516 0.000000 0.000000 -16.740198 -3.504800 23.699385 -2.957607 -0.090307 -0.002318 -78.872650 -35.829624 2.136079 -97.654564 -46.959618 -25.094124 57.709122 -40.041069 2.658056 2.957607 0.090307 -0.002334 60.872696 17.254538 -9.932930 97.619675 20.073761 -10.786523 -68.423889 53.165565 7.040082 -37.421413 26.064064 9.726287 30.558109 -2.925852 -0.265988 1.175076 -7.070496 -23.428669 -14.619484 -26.999840 -31.478815 30.912579 5.550286 11.866643 -17.853622 12.641918 6.687130 
-54.352200 47.868305 -51.332108 8.177978 -8.575340 46.984474 0.000000 0.000000 0.000000 23.352062 9.438722 -10.089464 -8.603516 0.000000 0.000000 -15.301615 -4.170778 21.640701 -2.957607 -0.090307 -0.002318 -77.724533 -34.530918 -0.293706 -97.829865 -47.493721 -25.599173 55.868896 -36.336933 2.616452 2.957607 0.090307 -0.002334 61.275349 18.136009 -8.362641 98.202141 19.919594 -11.159753 -68.448006 53.597340 8.759217 -34.574993 26.556751 11.977901 30.218075 -2.843114 -0.328978 -0.332883 -7.640562 -23.877047 -15.273581 -26.759060 -28.673359 30.172163 5.736101 11.719723 -17.428122 13.466838 6.841290 
-54.053532 47.908073 -51.454479 8.040773 -7.649571 43.638687 0.000000 0.000000 0.000000 22.442158 9.482955 -10.197412 -8.603516 0.000000 0.000000 -13.793598 -4.796275 19.512194 -2.957607 -0.090307 -0.002318 -76.791550 -32.128914 -2.097191 -98.224144 -47.849869 -25.934019 53.899151 -31.929598 2.299851 2.957607 0.090307 -0.002334 61.763462 18.650864 -6.819657 98.454071 20.066576 -11.370225 -68.221771 53.763889 10.764286 -31.549744 26.812443 13.619743 30.029943 -2.789316 -0.478063 -2.023124 -7.426874 -24.380466 -15.664037 -26.657122 -26.179903 29.731709 5.976326 11.475928 -17.161985 14.790416 7.034795 
-53.649490 47.922352 -51.599617 7.780029 -6.821992 40.446781 0.000000 0.000000 0.000000 21.653849 9.416476 -10.022743 -8.603516 0.000000 0.000000 -12.458456 -5.324379 17.544001 -2.957607 -0.090307 -0.002318 -76.068550 -29.620663 -3.491957 -98.348885 -48.008572 -26.148201 52.331871 -27.833765 2.017608 2.957607 0.090307 -0.002334 62.188778 18.870483 -5.299321 98.661758 20.302738 -11.557260 -68.455719 53.991112 12.329452 -28.891623 26.965204 14.941348 30.063307 -2.857913 -0.497140 -3.562380 -6.380749 -24.371723 -15.966573 -26.460226 -24.152939 29.937338 6.210640 11.290730 -17.406952 16.362537 7.069402 
-53.345047 47.908073 -51.679272 7.513898 -6.128966 37.844929 0.000000 0.000000 0.000000 20.990185 9.430917 -9.897840 -8.603516 0.000000 0.000000 -11.461825 -5.726408 15.865860 -2.957607 -0.090307 -0.002318 -75.670822 -27.206923 -4.492201 -98.359695 -48.278290 -25.993975 51.144390 -23.697329 1.682466 2.957607 0.090307 -0.002334 62.454548 18.800079 -3.802105 98.927109 20.737503 -11.678384 -69.102997 54.125217 13.652285 -26.520823 26.997164 16.404421 30.207167 -2.887228 -0.533716 -4.826961 -5.317057 -24.210848 -16.190174 -26.358286 -22.710276 30.312984 6.356900 11.266507 -17.727095 17.775784 7.049227 
-53.057716 47.839752 -51.778866 7.162097 -5.503861 35.578461 0.000000 0.000000 0.000000 20.440514 9.363544 -9.516818 -8.603516 0.000000 0.000000 -10.580197 -6.062463 14.545345 -2.957607 -0.090307 -0.002318 -75.253922 -25.367449 -4.708535 -97.993996 -48.417900 -25.693239 50.089344 -19.854763 1.478963 2.957607 0.090307 -0.002334 62.731628 18.447054 -2.146071 99.065201 20.998363 -11.681865 -70.693703 54.537453 14.361989 -24.306679 27.031078 18.059298 30.256464 -2.775558 -0.761663 -5.908521 -4.355932 -23.794020 -16.493029 -26.233809 -21.315144 31.115286 6.532880 11.195926 -18.228523 18.991650 6.982617 
